<svg xmlns="http://www.w3.org/2000/svg" viewBox="0 0 1080 1080">
  <defs>
    <linearGradient id="p6g" x1="0%" y1="0%" x2="100%" y2="100%">
      <stop offset="0%" stop-color="#06b6d4"/>
      <stop offset="100%" stop-color="#3b82f6"/>
    </linearGradient>
  </defs>
  <rect width="1080" height="1080" fill="#050505"/>
  <!-- Browser mockup -->
  <rect x="140" y="220" width="800" height="500" rx="16" fill="#1a1a1a"/>
  <rect x="140" y="220" width="800" height="36" rx="16" fill="#111111"/>
  <rect x="140" y="244" width="800" height="12" fill="#111111"/>
  <circle cx="168" cy="238" r="6" fill="#ff5f57" opacity="0.8"/>
  <circle cx="188" cy="238" r="6" fill="#ffbd2e" opacity="0.8"/>
  <circle cx="208" cy="238" r="6" fill="#27c93f" opacity="0.8"/>
  <text x="540" y="243" text-anchor="middle" font-family="system-ui,sans-serif" font-size="12" fill="white" opacity="0.3">pipely.com</text>
  <!-- Placeholder content -->
  <rect x="180" y="300" width="180" height="14" rx="7" fill="white" opacity="0.1"/>
  <rect x="180" y="330" width="300" height="10" rx="5" fill="white" opacity="0.05"/>
  <rect x="180" y="350" width="250" height="10" rx="5" fill="white" opacity="0.05"/>
  <rect x="180" y="400" width="720" height="180" rx="12" fill="white" opacity="0.03"/>
  <rect x="180" y="600" width="140" height="40" rx="20" fill="url(#p6g)" opacity="0.2"/>
  <!-- Play button -->
  <circle cx="540" cy="470" r="40" fill="white" opacity="0.15"/>
  <path d="M528 450l30 20-30 20z" fill="white" opacity="0.8"/>
  <!-- Text -->
  <text x="540" y="820" text-anchor="middle" font-family="system-ui,sans-serif" font-size="48" font-weight="800" fill="white">Proyecto: Pipely</text>
  <text x="540" y="870" text-anchor="middle" font-family="system-ui,sans-serif" font-size="24" font-weight="400" fill="url(#p6g)">Web entregada en 48 horas</text>
  <!-- Brand -->
  <text x="540" y="1020" text-anchor="middle" font-family="system-ui,sans-serif" font-size="18" font-weight="600" fill="white" opacity="0.2" letter-spacing="6">SITESPRINT</text>
</svg>
