<svg xmlns="http://www.w3.org/2000/svg" viewBox="0 0 1080 1080">
  <defs>
    <linearGradient id="p3g" x1="0%" y1="0%" x2="100%" y2="100%">
      <stop offset="0%" stop-color="#8b5cf6"/>
      <stop offset="100%" stop-color="#ec4899"/>
    </linearGradient>
  </defs>
  <rect width="1080" height="1080" fill="#050505"/>
  <!-- Ambient glow -->
  <circle cx="540" cy="450" r="350" fill="#8b5cf6" opacity="0.04"/>
  <!-- Phone mockup -->
  <rect x="360" y="160" width="360" height="700" rx="40" fill="#1a1a1a" stroke="white" stroke-opacity="0.1" stroke-width="2"/>
  <rect x="375" y="200" width="330" height="620" rx="8" fill="#111111"/>
  <!-- Phone content lines -->
  <rect x="400" y="230" width="140" height="12" rx="6" fill="white" opacity="0.1"/>
  <rect x="400" y="260" width="280" height="80" rx="8" fill="white" opacity="0.04"/>
  <rect x="400" y="360" width="200" height="10" rx="5" fill="white" opacity="0.07"/>
  <rect x="400" y="380" width="260" height="10" rx="5" fill="white" opacity="0.05"/>
  <rect x="400" y="410" width="120" height="32" rx="16" fill="url(#p3g)" opacity="0.3"/>
  <rect x="400" y="470" width="280" height="120" rx="8" fill="white" opacity="0.03"/>
  <rect x="400" y="610" width="280" height="8" rx="4" fill="white" opacity="0.05"/>
  <rect x="400" y="630" width="200" height="8" rx="4" fill="white" opacity="0.04"/>
  <!-- Notch -->
  <rect x="480" y="168" width="120" height="24" rx="12" fill="#050505"/>
  <!-- Text -->
  <text x="540" y="940" text-anchor="middle" font-family="system-ui,sans-serif" font-size="44" font-weight="800" fill="white">Optimizada para</text>
  <text x="540" y="1000" text-anchor="middle" font-family="system-ui,sans-serif" font-size="44" font-weight="800" fill="url(#p3g)">móvil desde el día 1</text>
  <!-- Brand -->
  <text x="540" y="80" text-anchor="middle" font-family="system-ui,sans-serif" font-size="18" font-weight="600" fill="white" opacity="0.2" letter-spacing="6">SITESPRINT</text>
</svg>
